<svg xmlns="http://www.w3.org/2000/svg" version="1.1" xmlns:xlink="http://www.w3.org/1999/xlink" xmlns:svgjs="http://svgjs.com/svgjs" width="512" height="512" x="0" y="0" viewBox="0 0 24 24" style="enable-background:new 0 0 512 512" xml:space="preserve" class=""><g><path xmlns="http://www.w3.org/2000/svg" d="m4.25 8h-2.5c-.965 0-1.75.785-1.75 1.75v11.5c0 .965.785 1.75 1.75 1.75h2.5c.965 0 1.75-.785 1.75-1.75v-11.5c0-.965-.785-1.75-1.75-1.75z" fill="#2196f3" data-original="#2196f3"></path><path xmlns="http://www.w3.org/2000/svg" d="m18.751 8.75h-4.72s.75-1.5.75-4c0-3-2.25-4-3.25-4s-1.5.5-1.5 3c0 2.376-2.801 4.288-4.281 5.273v12.388c1.601.741 5.306 1.839 10.281 1.839h1.6c1.95 0 3.61-1.4 3.94-3.32l1.12-6.5c.42-2.45-1.46-4.68-3.94-4.68z" fill="#ffc107" data-original="#ffc107" class=""></path><path xmlns="http://www.w3.org/2000/svg" d="m1.75 24h2.5c.965 0 1.75-.785 1.75-1.75v-.366c1.512.77 4.946 2.116 10.531 2.116h1.6c2.318 0 4.286-1.658 4.679-3.942l1.12-6.5c.238-1.387-.145-2.797-1.049-3.871-.903-1.072-2.227-1.687-3.63-1.687h-4.536c.283-.76.566-1.868.566-3.25 0-3.757-2.126-4.75-3.25-4.75-2.076 0-2.25 1.936-2.25 3.75 0 2.214-2.483 4.054-3.794 4.872-.067-.904-.816-1.622-1.737-1.622h-2.5c-.965 0-1.75.785-1.75 1.75v13.5c0 .965.785 1.75 1.75 1.75zm9.531-20.25c0-2.25.381-2.25.75-2.25.704 0 1.75.866 1.75 3.25 0 2.216-.868 3.574-.874 3.584-.153.23-.168.526-.037.77.13.244.385.396.661.396h5.72c.96 0 1.865.42 2.483 1.153.619.734.881 1.7.718 2.649l-1.12 6.5c-.269 1.562-1.615 2.697-3.201 2.697h-1.6c-6.803.001-10.211-2.127-10.531-2.338v-9.81c.833-.442 5.281-2.972 5.281-6.601zm-9.781 5c0-.138.112-.25.25-.25h2.5c.138 0 .25.112.25.25v13.5c0 .136-.114.25-.25.25h-2.5c-.138 0-.25-.112-.25-.25z" fill="#000000" data-original="#000000" class=""></path></g></svg>
